<?xml version="1.0" encoding="UTF-8"?>
<mxfile host="app.diagrams.net" agent="Mozilla/5.0 (Macintosh; Intel Mac OS X 10_15_7) AppleWebKit/537.36 (KHTML, like Gecko) Chrome/139.0.0.0 Safari/537.36" version="28.1.0">
  <diagram name="Страница — 5" id="6F_d1-Uh_se5aLGnbaiq">
    <mxGraphModel dx="1216" dy="704" grid="1" gridSize="10" guides="1" tooltips="1" connect="1" arrows="1" fold="1" page="1" pageScale="1" pageWidth="827" pageHeight="1169" math="0" shadow="0">
      <root>
        <mxCell id="0" />
        <mxCell id="1" parent="0" />
        <mxCell id="48U98SgP3mwVh-0RyYtY-1" value="Схема интеграции приложений банка «Стандарт» - 4 основных флоу" style="text;html=1;align=center;verticalAlign=middle;whiteSpace=wrap;rounded=0;fontSize=28;fontStyle=1;" parent="1" vertex="1">
          <mxGeometry x="630" y="420" width="800" height="60" as="geometry" />
        </mxCell>
        <mxCell id="48U98SgP3mwVh-0RyYtY-2" value="ФЛОУ 1: Открытие депозита" style="text;html=1;align=center;verticalAlign=middle;whiteSpace=wrap;rounded=0;fontSize=20;fontStyle=1;fontColor=#d73027;fillColor=#fee5d9;strokeColor=#d73027;" parent="1" vertex="1">
          <mxGeometry x="280" y="500" width="350" height="40" as="geometry" />
        </mxCell>
        <mxCell id="48U98SgP3mwVh-0RyYtY-3" value="Клиент банка" style="shape=umlActor;verticalLabelPosition=bottom;verticalAlign=top;html=1;outlineConnect=0;" parent="1" vertex="1">
          <mxGeometry x="300" y="560" width="30" height="60" as="geometry" />
        </mxCell>
        <mxCell id="48U98SgP3mwVh-0RyYtY-4" value="Сотрудник отделения" style="shape=umlActor;verticalLabelPosition=bottom;verticalAlign=top;html=1;outlineConnect=0;" parent="1" vertex="1">
          <mxGeometry x="420" y="560" width="30" height="60" as="geometry" />
        </mxCell>
        <mxCell id="48U98SgP3mwVh-0RyYtY-5" value="Сотрудник бэк-офиса" style="shape=umlActor;verticalLabelPosition=bottom;verticalAlign=top;html=1;outlineConnect=0;" parent="1" vertex="1">
          <mxGeometry x="555" y="560" width="30" height="60" as="geometry" />
        </mxCell>
        <mxCell id="48U98SgP3mwVh-0RyYtY-6" value="АБС&lt;div&gt;Delphi + Oracle + PL SQL&lt;/div&gt;" style="rounded=1;whiteSpace=wrap;html=1;fillColor=#0050ef;fontColor=#ffffff;strokeColor=#001DBC;opacity=80;" parent="1" vertex="1">
          <mxGeometry x="385" y="690" width="100" height="60" as="geometry" />
        </mxCell>
        <mxCell id="48U98SgP3mwVh-0RyYtY-7" value="СМС-шлюз&lt;div&gt;Интеграция с телеком-оператором&lt;/div&gt;" style="rounded=1;whiteSpace=wrap;html=1;fillColor=#e3c800;fontColor=#000000;strokeColor=#B09500;opacity=80;" parent="1" vertex="1">
          <mxGeometry x="375" y="820" width="100" height="60" as="geometry" />
        </mxCell>
        <mxCell id="48U98SgP3mwVh-0RyYtY-8" value="Excel файлы&lt;div&gt;Ставки по депозитам&lt;/div&gt;" style="rounded=1;whiteSpace=wrap;html=1;fillColor=#a20025;fontColor=#ffffff;strokeColor=#6F0000;opacity=80;" parent="1" vertex="1">
          <mxGeometry x="520" y="690" width="100" height="60" as="geometry" />
        </mxCell>
        <mxCell id="48U98SgP3mwVh-0RyYtY-9" style="edgeStyle=orthogonalEdgeStyle;rounded=0;orthogonalLoop=1;jettySize=auto;html=1;strokeColor=#d73027;strokeWidth=1;" parent="1" source="48U98SgP3mwVh-0RyYtY-3" target="48U98SgP3mwVh-0RyYtY-4" edge="1">
          <mxGeometry relative="1" as="geometry" />
        </mxCell>
        <mxCell id="48U98SgP3mwVh-0RyYtY-10" style="edgeStyle=orthogonalEdgeStyle;rounded=0;orthogonalLoop=1;jettySize=auto;html=1;strokeColor=#d73027;strokeWidth=1;" parent="1" source="48U98SgP3mwVh-0RyYtY-4" target="48U98SgP3mwVh-0RyYtY-6" edge="1">
          <mxGeometry relative="1" as="geometry" />
        </mxCell>
        <mxCell id="48U98SgP3mwVh-0RyYtY-11" style="edgeStyle=orthogonalEdgeStyle;rounded=0;orthogonalLoop=1;jettySize=auto;html=1;strokeColor=#d73027;strokeWidth=1;" parent="1" source="48U98SgP3mwVh-0RyYtY-5" target="48U98SgP3mwVh-0RyYtY-8" edge="1">
          <mxGeometry relative="1" as="geometry" />
        </mxCell>
        <mxCell id="48U98SgP3mwVh-0RyYtY-12" style="edgeStyle=orthogonalEdgeStyle;rounded=0;orthogonalLoop=1;jettySize=auto;html=1;strokeColor=#d73027;strokeWidth=1;" parent="1" source="48U98SgP3mwVh-0RyYtY-8" target="48U98SgP3mwVh-0RyYtY-6" edge="1">
          <mxGeometry relative="1" as="geometry" />
        </mxCell>
        <mxCell id="48U98SgP3mwVh-0RyYtY-13" style="edgeStyle=orthogonalEdgeStyle;rounded=0;orthogonalLoop=1;jettySize=auto;html=1;strokeColor=#d73027;strokeWidth=1;" parent="1" source="48U98SgP3mwVh-0RyYtY-6" edge="1">
          <mxGeometry relative="1" as="geometry">
            <mxPoint x="435" y="820" as="targetPoint" />
          </mxGeometry>
        </mxCell>
        <mxCell id="48U98SgP3mwVh-0RyYtY-14" style="edgeStyle=orthogonalEdgeStyle;rounded=0;orthogonalLoop=1;jettySize=auto;html=1;strokeColor=#d73027;strokeWidth=1;" parent="1" target="48U98SgP3mwVh-0RyYtY-3" edge="1">
          <mxGeometry relative="1" as="geometry">
            <mxPoint x="385" y="850" as="sourcePoint" />
          </mxGeometry>
        </mxCell>
        <mxCell id="48U98SgP3mwVh-0RyYtY-15" value="ФЛОУ 2: Консультирование" style="text;html=1;align=center;verticalAlign=middle;whiteSpace=wrap;rounded=0;fontSize=20;fontStyle=1;fontColor=#4575b4;fillColor=#e3f2fd;strokeColor=#4575b4;" parent="1" vertex="1">
          <mxGeometry x="680" y="500" width="350" height="40" as="geometry" />
        </mxCell>
        <mxCell id="48U98SgP3mwVh-0RyYtY-16" value="Клиент банка" style="shape=umlActor;verticalLabelPosition=bottom;verticalAlign=top;html=1;outlineConnect=0;" parent="1" vertex="1">
          <mxGeometry x="710" y="560" width="30" height="60" as="geometry" />
        </mxCell>
        <mxCell id="48U98SgP3mwVh-0RyYtY-17" value="Оператор кол-центра" style="shape=umlActor;verticalLabelPosition=bottom;verticalAlign=top;html=1;outlineConnect=0;" parent="1" vertex="1">
          <mxGeometry x="830" y="560" width="30" height="60" as="geometry" />
        </mxCell>
        <mxCell id="48U98SgP3mwVh-0RyYtY-18" value="Система кол-центра&lt;div&gt;React.js + Java Spring Boot + PostgreSQL&lt;/div&gt;" style="rounded=1;whiteSpace=wrap;html=1;fillColor=#0050ef;fontColor=#ffffff;strokeColor=#001DBC;opacity=80;" parent="1" vertex="1">
          <mxGeometry x="920" y="690" width="110" height="70" as="geometry" />
        </mxCell>
        <mxCell id="48U98SgP3mwVh-0RyYtY-19" value="АБС&lt;div&gt;Delphi + Oracle + PL SQL&lt;/div&gt;" style="rounded=1;whiteSpace=wrap;html=1;fillColor=#0050ef;fontColor=#ffffff;strokeColor=#001DBC;opacity=80;" parent="1" vertex="1">
          <mxGeometry x="780" y="695" width="100" height="60" as="geometry" />
        </mxCell>
        <mxCell id="48U98SgP3mwVh-0RyYtY-20" value="СМС-шлюз&lt;div&gt;Интеграция с телеком-оператором&lt;/div&gt;" style="rounded=1;whiteSpace=wrap;html=1;fillColor=#e3c800;fontColor=#000000;strokeColor=#B09500;opacity=80;" parent="1" vertex="1">
          <mxGeometry x="780" y="800" width="100" height="60" as="geometry" />
        </mxCell>
        <mxCell id="48U98SgP3mwVh-0RyYtY-21" style="edgeStyle=orthogonalEdgeStyle;rounded=0;orthogonalLoop=1;jettySize=auto;html=1;strokeColor=#4575b4;strokeWidth=1;" parent="1" source="48U98SgP3mwVh-0RyYtY-16" target="48U98SgP3mwVh-0RyYtY-17" edge="1">
          <mxGeometry relative="1" as="geometry" />
        </mxCell>
        <mxCell id="48U98SgP3mwVh-0RyYtY-22" style="edgeStyle=orthogonalEdgeStyle;rounded=0;orthogonalLoop=1;jettySize=auto;html=1;strokeColor=#4575b4;strokeWidth=1;" parent="1" source="48U98SgP3mwVh-0RyYtY-17" target="48U98SgP3mwVh-0RyYtY-18" edge="1">
          <mxGeometry relative="1" as="geometry" />
        </mxCell>
        <mxCell id="48U98SgP3mwVh-0RyYtY-23" style="edgeStyle=orthogonalEdgeStyle;rounded=0;orthogonalLoop=1;jettySize=auto;html=1;strokeColor=#4575b4;strokeWidth=1;" parent="1" source="48U98SgP3mwVh-0RyYtY-18" target="48U98SgP3mwVh-0RyYtY-19" edge="1">
          <mxGeometry relative="1" as="geometry" />
        </mxCell>
        <mxCell id="48U98SgP3mwVh-0RyYtY-24" style="edgeStyle=orthogonalEdgeStyle;rounded=0;orthogonalLoop=1;jettySize=auto;html=1;strokeColor=#4575b4;strokeWidth=1;" parent="1" source="48U98SgP3mwVh-0RyYtY-19" target="48U98SgP3mwVh-0RyYtY-20" edge="1">
          <mxGeometry relative="1" as="geometry" />
        </mxCell>
        <mxCell id="48U98SgP3mwVh-0RyYtY-25" style="edgeStyle=orthogonalEdgeStyle;rounded=0;orthogonalLoop=1;jettySize=auto;html=1;strokeColor=#4575b4;strokeWidth=1;" parent="1" source="48U98SgP3mwVh-0RyYtY-20" target="48U98SgP3mwVh-0RyYtY-16" edge="1">
          <mxGeometry relative="1" as="geometry" />
        </mxCell>
        <mxCell id="48U98SgP3mwVh-0RyYtY-26" value="ФЛОУ 3: Подача заявки" style="text;html=1;align=center;verticalAlign=middle;whiteSpace=wrap;rounded=0;fontSize=20;fontStyle=1;fontColor=#1a9850;fillColor=#e8f5e8;strokeColor=#1a9850;" parent="1" vertex="1">
          <mxGeometry x="1080" y="500" width="350" height="40" as="geometry" />
        </mxCell>
        <mxCell id="48U98SgP3mwVh-0RyYtY-27" value="Клиент банка" style="shape=umlActor;verticalLabelPosition=bottom;verticalAlign=top;html=1;outlineConnect=0;" parent="1" vertex="1">
          <mxGeometry x="1122.5" y="560" width="30" height="60" as="geometry" />
        </mxCell>
        <mxCell id="48U98SgP3mwVh-0RyYtY-28" value="Оператор кол-центра" style="shape=umlActor;verticalLabelPosition=bottom;verticalAlign=top;html=1;outlineConnect=0;" parent="1" vertex="1">
          <mxGeometry x="1357.5" y="560" width="30" height="60" as="geometry" />
        </mxCell>
        <mxCell id="48U98SgP3mwVh-0RyYtY-29" value="Сайт банка&lt;div&gt;PHP + React.js&lt;/div&gt;" style="rounded=1;whiteSpace=wrap;html=1;fillColor=#0050ef;fontColor=#ffffff;strokeColor=#001DBC;opacity=80;" parent="1" vertex="1">
          <mxGeometry x="1087.5" y="760" width="100" height="60" as="geometry" />
        </mxCell>
        <mxCell id="48U98SgP3mwVh-0RyYtY-30" value="Система кол-центра&lt;div&gt;React.js + Java Spring Boot + PostgreSQL&lt;/div&gt;" style="rounded=1;whiteSpace=wrap;html=1;fillColor=#0050ef;fontColor=#ffffff;strokeColor=#001DBC;opacity=80;" parent="1" vertex="1">
          <mxGeometry x="1318.75" y="750" width="107.5" height="80" as="geometry" />
        </mxCell>
        <mxCell id="48U98SgP3mwVh-0RyYtY-31" style="edgeStyle=orthogonalEdgeStyle;rounded=0;orthogonalLoop=1;jettySize=auto;html=1;strokeColor=#1a9850;strokeWidth=1;" parent="1" source="48U98SgP3mwVh-0RyYtY-27" target="48U98SgP3mwVh-0RyYtY-29" edge="1">
          <mxGeometry relative="1" as="geometry" />
        </mxCell>
        <mxCell id="48U98SgP3mwVh-0RyYtY-32" style="edgeStyle=orthogonalEdgeStyle;rounded=0;orthogonalLoop=1;jettySize=auto;html=1;strokeColor=#1a9850;strokeWidth=1;" parent="1" source="48U98SgP3mwVh-0RyYtY-29" target="48U98SgP3mwVh-0RyYtY-30" edge="1">
          <mxGeometry relative="1" as="geometry" />
        </mxCell>
        <mxCell id="48U98SgP3mwVh-0RyYtY-33" style="edgeStyle=orthogonalEdgeStyle;rounded=0;orthogonalLoop=1;jettySize=auto;html=1;strokeColor=#1a9850;strokeWidth=1;" parent="1" source="48U98SgP3mwVh-0RyYtY-30" target="48U98SgP3mwVh-0RyYtY-28" edge="1">
          <mxGeometry relative="1" as="geometry" />
        </mxCell>
        <mxCell id="48U98SgP3mwVh-0RyYtY-34" style="edgeStyle=orthogonalEdgeStyle;rounded=0;orthogonalLoop=1;jettySize=auto;html=1;strokeColor=#1a9850;strokeWidth=1;" parent="1" source="48U98SgP3mwVh-0RyYtY-28" target="48U98SgP3mwVh-0RyYtY-27" edge="1">
          <mxGeometry relative="1" as="geometry" />
        </mxCell>
        <mxCell id="48U98SgP3mwVh-0RyYtY-35" value="ФЛОУ 4: Проведение платежа" style="text;html=1;align=center;verticalAlign=middle;whiteSpace=wrap;rounded=0;fontSize=20;fontStyle=1;fontColor=#fd8d3c;fillColor=#fff3e0;strokeColor=#fd8d3c;" parent="1" vertex="1">
          <mxGeometry x="1480" y="500" width="350" height="40" as="geometry" />
        </mxCell>
        <mxCell id="48U98SgP3mwVh-0RyYtY-36" value="Клиент банка" style="shape=umlActor;verticalLabelPosition=bottom;verticalAlign=top;html=1;outlineConnect=0;" parent="1" vertex="1">
          <mxGeometry x="1510" y="560" width="30" height="60" as="geometry" />
        </mxCell>
        <mxCell id="48U98SgP3mwVh-0RyYtY-37" value="Интернет-банк&lt;div&gt;ASP.NET MVC 4.5 + MS SQL&lt;/div&gt;" style="rounded=1;whiteSpace=wrap;html=1;fillColor=#0050ef;fontColor=#ffffff;strokeColor=#001DBC;opacity=80;" parent="1" vertex="1">
          <mxGeometry x="1590" y="560" width="100" height="60" as="geometry" />
        </mxCell>
        <mxCell id="48U98SgP3mwVh-0RyYtY-38" value="АБС&lt;div&gt;Delphi + Oracle + PL SQL&lt;/div&gt;" style="rounded=1;whiteSpace=wrap;html=1;fillColor=#0050ef;fontColor=#ffffff;strokeColor=#001DBC;opacity=80;" parent="1" vertex="1">
          <mxGeometry x="1730" y="560" width="100" height="60" as="geometry" />
        </mxCell>
        <mxCell id="48U98SgP3mwVh-0RyYtY-39" value="СМС-шлюз&lt;div&gt;Интеграция с телеком-оператором&lt;/div&gt;" style="rounded=1;whiteSpace=wrap;html=1;fillColor=#e3c800;fontColor=#000000;strokeColor=#B09500;opacity=80;" parent="1" vertex="1">
          <mxGeometry x="1730" y="730" width="100" height="60" as="geometry" />
        </mxCell>
        <mxCell id="48U98SgP3mwVh-0RyYtY-40" style="edgeStyle=orthogonalEdgeStyle;rounded=0;orthogonalLoop=1;jettySize=auto;html=1;strokeColor=#fd8d3c;strokeWidth=1;" parent="1" source="48U98SgP3mwVh-0RyYtY-36" target="48U98SgP3mwVh-0RyYtY-37" edge="1">
          <mxGeometry relative="1" as="geometry" />
        </mxCell>
        <mxCell id="48U98SgP3mwVh-0RyYtY-41" style="edgeStyle=orthogonalEdgeStyle;rounded=0;orthogonalLoop=1;jettySize=auto;html=1;strokeColor=#fd8d3c;strokeWidth=1;" parent="1" source="48U98SgP3mwVh-0RyYtY-37" target="48U98SgP3mwVh-0RyYtY-38" edge="1">
          <mxGeometry relative="1" as="geometry" />
        </mxCell>
        <mxCell id="48U98SgP3mwVh-0RyYtY-42" style="edgeStyle=orthogonalEdgeStyle;rounded=0;orthogonalLoop=1;jettySize=auto;html=1;strokeColor=#fd8d3c;strokeWidth=2;" parent="1" source="48U98SgP3mwVh-0RyYtY-38" target="48U98SgP3mwVh-0RyYtY-39" edge="1">
          <mxGeometry relative="1" as="geometry" />
        </mxCell>
        <mxCell id="48U98SgP3mwVh-0RyYtY-43" style="edgeStyle=orthogonalEdgeStyle;rounded=0;orthogonalLoop=1;jettySize=auto;html=1;strokeColor=#fd8d3c;strokeWidth=1;" parent="1" source="48U98SgP3mwVh-0RyYtY-39" target="48U98SgP3mwVh-0RyYtY-36" edge="1">
          <mxGeometry relative="1" as="geometry" />
        </mxCell>
        <mxCell id="48U98SgP3mwVh-0RyYtY-44" value="Описание флоу:" style="text;html=1;align=left;verticalAlign=middle;whiteSpace=wrap;rounded=0;fontSize=18;fontStyle=1;" parent="1" vertex="1">
          <mxGeometry x="280" y="900" width="200" height="30" as="geometry" />
        </mxCell>
        <mxCell id="48U98SgP3mwVh-0RyYtY-45" value="&lt;b&gt;Флоу 1 (Красный):&lt;/b&gt;&lt;div&gt;1. Клиент → Сотрудник отделения&lt;/div&gt;&lt;div&gt;2. Сотрудник → АБС&lt;/div&gt;&lt;div&gt;3. Сотрудник бэк-офиса → Excel&lt;/div&gt;&lt;div&gt;4. Excel → АБС&lt;/div&gt;&lt;div&gt;5. АБС → СМС-шлюз&lt;/div&gt;&lt;div&gt;6. СМС-шлюз → Клиент&lt;/div&gt;" style="text;html=1;whiteSpace=wrap;overflow=hidden;rounded=0;fontSize=12;" parent="1" vertex="1">
          <mxGeometry x="280" y="940" width="350" height="120" as="geometry" />
        </mxCell>
        <mxCell id="48U98SgP3mwVh-0RyYtY-46" value="&lt;b&gt;Флоу 2 (Синий):&lt;/b&gt;&lt;div&gt;1. Клиент → Оператор кол-центра&lt;/div&gt;&lt;div&gt;2. Оператор → Система кол-центра&lt;/div&gt;&lt;div&gt;3. Система кол-центра → АБС&lt;/div&gt;&lt;div&gt;4. АБС → СМС-шлюз&lt;/div&gt;&lt;div&gt;5. СМС-шлюз → Клиент&lt;/div&gt;" style="text;html=1;whiteSpace=wrap;overflow=hidden;rounded=0;fontSize=12;" parent="1" vertex="1">
          <mxGeometry x="680" y="940" width="350" height="120" as="geometry" />
        </mxCell>
        <mxCell id="48U98SgP3mwVh-0RyYtY-47" value="&lt;b&gt;Флоу 3 (Зеленый):&lt;/b&gt;&lt;div&gt;1. Клиент → Сайт банка&lt;/div&gt;&lt;div&gt;2. Сайт → Система кол-центра&lt;/div&gt;&lt;div&gt;3. Система кол-центра → Оператор&lt;/div&gt;&lt;div&gt;4. Оператор → Клиент&lt;/div&gt;" style="text;html=1;whiteSpace=wrap;overflow=hidden;rounded=0;fontSize=12;" parent="1" vertex="1">
          <mxGeometry x="1080" y="940" width="350" height="120" as="geometry" />
        </mxCell>
        <mxCell id="48U98SgP3mwVh-0RyYtY-48" value="&lt;b&gt;Флоу 4 (Оранжевый):&lt;/b&gt;&lt;div&gt;1. Клиент → Интернет-банк&lt;/div&gt;&lt;div&gt;2. Интернет-банк → АБС&lt;/div&gt;&lt;div&gt;3. АБС → СМС-шлюз&lt;/div&gt;&lt;div&gt;4. СМС-шлюз → Клиент&lt;/div&gt;" style="text;html=1;whiteSpace=wrap;overflow=hidden;rounded=0;fontSize=12;" parent="1" vertex="1">
          <mxGeometry x="1480" y="940" width="350" height="120" as="geometry" />
        </mxCell>
        <mxCell id="48U98SgP3mwVh-0RyYtY-49" value="Легенда:" style="text;html=1;align=left;verticalAlign=middle;whiteSpace=wrap;rounded=0;fontSize=16;fontStyle=1;" parent="1" vertex="1">
          <mxGeometry x="280" y="1100" width="100" height="30" as="geometry" />
        </mxCell>
        <mxCell id="48U98SgP3mwVh-0RyYtY-50" value="" style="rounded=1;whiteSpace=wrap;html=1;fillColor=#0050ef;fontColor=#ffffff;strokeColor=#001DBC;opacity=80;" parent="1" vertex="1">
          <mxGeometry x="280" y="1140" width="80" height="20" as="geometry" />
        </mxCell>
        <mxCell id="48U98SgP3mwVh-0RyYtY-51" value="Основные системы банка" style="text;html=1;align=left;verticalAlign=middle;whiteSpace=wrap;rounded=0;fontSize=12;" parent="1" vertex="1">
          <mxGeometry x="370" y="1140" width="150" height="20" as="geometry" />
        </mxCell>
        <mxCell id="48U98SgP3mwVh-0RyYtY-52" value="" style="rounded=1;whiteSpace=wrap;html=1;fillColor=#e3c800;fontColor=#000000;strokeColor=#B09500;opacity=80;" parent="1" vertex="1">
          <mxGeometry x="280" y="1170" width="80" height="20" as="geometry" />
        </mxCell>
        <mxCell id="48U98SgP3mwVh-0RyYtY-53" value="Внешние системы" style="text;html=1;align=left;verticalAlign=middle;whiteSpace=wrap;rounded=0;fontSize=12;" parent="1" vertex="1">
          <mxGeometry x="370" y="1170" width="150" height="20" as="geometry" />
        </mxCell>
        <mxCell id="48U98SgP3mwVh-0RyYtY-54" value="" style="rounded=1;whiteSpace=wrap;html=1;fillColor=#a20025;fontColor=#ffffff;strokeColor=#6F0000;opacity=80;" parent="1" vertex="1">
          <mxGeometry x="280" y="1200" width="80" height="20" as="geometry" />
        </mxCell>
        <mxCell id="48U98SgP3mwVh-0RyYtY-55" value="Ручные процессы" style="text;html=1;align=left;verticalAlign=middle;whiteSpace=wrap;rounded=0;fontSize=12;" parent="1" vertex="1">
          <mxGeometry x="370" y="1200" width="150" height="20" as="geometry" />
        </mxCell>
      </root>
    </mxGraphModel>
  </diagram>
</mxfile>
